:SAMPLES-PER-SECOND 30
:FULLY-SPECIFIED
:DEGREES
596
root  38.094 38.9235 -15.9857 -5.06337 45.8314 -0.201904
RightUpLeg  -5.77897 -3.40547 6.36155
RightLeg  26.9902 -2.11702 -1.41592
RightFoot  -13.9546 -0.340455 -10.7744
RightToes  0.00048216 0.542163 -0.142577
Spine  3.35913 -1.06812 6.15947
Spine1  9.77671 -1.60198 5.17134
HEad  -6.51834 2.99042 -0.874715
LeftShoulder1  8.04882 -11.5892 -46.5151
LeftArm  -5.00262 20.8376 -28.9584
LeftForeArm  34.4347 -26.1265 -3.77725
LeftHand  -0.25398 0.0180481 5.50724
RightShoulder  4.16601 7.46355 32.0419
RightArm  1.69372 -25.6856 39.3633
RightForeArm  91.428 79.2561 101.193
RightHand  -3.84015 10.6794 -27.6641
LeftUpLeg  -19.4711 6.67327 5.57109
LeftLeg  57.1451 5.53726 9.66464
LeftFoot  -1.31591 0.191977 -2.13701
LeftToes  1.06246e-005 4.65856e-005 -8.18502e-006
597
root  39.561 39.0731 -15.4536 -4.1879 40.4475 0.704468
RightUpLeg  -3.1668 0.808392 4.89846
RightLeg  25.9946 -0.929519 -0.734209
RightFoot  -15.1076 -0.436137 -10.1271
RightToes  0.00048216 0.542163 -0.142577
Spine  2.79047 -0.547332 6.26029
Spine1  9.99918 -0.871573 3.70753
HEad  -6.88955 4.86406 -1.17014
LeftShoulder1  8.08532 -11.6602 -46.5076
LeftArm  -4.29569 22.3713 -29.0598
LeftForeArm  32.0848 -23.8587 -3.45728
LeftHand  -0.25398 0.0180481 5.50724
RightShoulder  4.25435 7.60178 32.3655
RightArm  3.61919 -25.4714 38.8396
RightForeArm  98.4256 79.0811 106.639
RightHand  -3.6039 10.223 -26.7695
LeftUpLeg  -20.6399 6.18411 6.75284
LeftLeg  47.9424 7.2094 8.90712
LeftFoot  -3.20148 0.264195 -3.41776
LeftToes  1.06246e-005 4.65856e-005 -8.18502e-006
598
root  41.0026 39.146 -14.9315 -3.31944 35.0631 1.31371
RightUpLeg  -1.21967 5.17007 3.53885
RightLeg  25.1945 -0.0865202 -0.281439
RightFoot  -16.2632 -0.526919 -9.67867
RightToes  0.00048216 0.542163 -0.142577
Spine  2.12508 -0.10744 6.17183
Spine1  10.2122 -0.338153 2.55953
HEad  -7.35291 6.72163 -1.38763
LeftShoulder1  8.10359 -11.68 -46.5529
LeftArm  -4.1901 23.6193 -29.4067
LeftForeArm  31.3295 -21.9345 -3.3686
LeftHand  -0.25398 0.0180481 5.50724
RightShoulder  4.34722 7.76586 32.6329
RightArm  5.59382 -25.4163 38.095
RightForeArm  103.242 78.7988 111.21
RightHand  -3.43289 9.76218 -26.297
LeftUpLeg  -20.692 4.31415 8.45182
LeftLeg  36.6512 8.48926 7.07823
LeftFoot  -3.52734 0.267569 -3.60193
LeftToes  1.06246e-005 4.65856e-005 -8.18502e-006
599
root  42.4398 39.1345 -14.4342 -2.86234 29.9929 1.4933
RightUpLeg  0.243887 9.1148 2.22631
RightLeg  24.9343 1.13741 0.346069
RightFoot  -17.4529 -0.595863 -8.94546
RightToes  0.00048216 0.542163 -0.142577
Spine  2.02131 0.0987736 6.18626
Spine1  10.1324 -0.0589048 1.71889
HEad  -7.98287 8.42088 -1.54957
LeftShoulder1  8.10988 -11.688 -46.565
LeftArm  -4.8338 24.5767 -29.9949
LeftForeArm  31.855 -20.3205 -3.52554
LeftHand  -0.25398 0.0180481 5.50724
RightShoulder  4.4058 7.84899 32.866
RightArm  7.38763 -25.4884 37.2079
RightForeArm  106.522 78.4444 115.118
RightHand  -3.34881 9.43679 -26.2159
LeftUpLeg  -19.8672 -0.58216 10.8504
LeftLeg  25.2045 9.05515 4.8889
LeftFoot  -4.40573 0.197473 -2.7886
LeftToes  1.06246e-005 4.65856e-005 -8.18502e-006
600
root  43.8982 39.0139 -13.954 -2.95067 24.9489 1.54755
RightUpLeg  1.49786 12.7236 0.76076
RightLeg  25.5199 2.6996 1.17356
RightFoot  -18.8503 -0.643831 -7.85557
RightToes  0.00048216 0.542163 -0.142577
Spine  2.69689 0.241045 6.21757
Spine1  9.99619 0.226501 1.00235
HEad  -8.79176 9.77737 -1.51447
LeftShoulder1  8.11281 -11.7526 -46.3805
LeftArm  -5.52273 25.0987 -30.8181
LeftForeArm  32.4417 -18.8575 -3.77464
LeftHand  -0.25398 0.0180481 5.50724
RightShoulder  4.49684 7.98088 33.2112
RightArm  8.70914 -25.7537 36.0451
RightForeArm  109.901 78.0108 119.074
RightHand  -3.29927 9.19649 -26.249
LeftUpLeg  -18.3767 -4.92083 12.9833
LeftLeg  15.8043 6.38703 2.7712
LeftFoot  -7.08764 0.161475 -3.43588
LeftToes  1.06246e-005 4.65856e-005 -8.18502e-006
